<svg width="75" height="74" viewBox="0 0 75 74" fill="none" xmlns="http://www.w3.org/2000/svg">
<path d="M2.30003 53.3048V50.9959H6.97627C7.02901 36.9898 6.97627 23.0536 7.00264 9.0752C7.80105 8.98051 8.57457 9.03587 9.34662 9.02858L9.33197 9.01402C9.33197 21.2007 9.33197 33.3884 9.33197 45.577C9.33197 45.7708 9.33197 45.9659 9.34515 46.1597C9.34704 46.183 9.35569 46.2053 9.37006 46.2238C9.38614 46.2427 9.40378 46.2602 9.4228 46.2762C10.6124 46.3898 58.0149 46.3345 58.557 46.2092V11.9216C58.557 11.0476 58.5423 10.1735 58.557 9.29953C58.5716 8.42551 58.5321 7.57335 58.5921 6.67748H60.9156V4.34677H63.2523C63.2523 3.90976 63.2625 3.55287 63.2523 3.19307C63.242 2.83327 63.3123 2.42685 63.1878 2.03646H17.3879C17.0451 2.03646 16.7038 2.03646 16.3624 2.02626L16.3756 2.03937V0H65.5992V1.96799C66.3961 2.09035 67.1755 1.92429 67.9827 2.08453V43.9819C68.7914 43.9819 69.5429 43.9819 70.2959 43.9819C71.0489 43.9819 71.8371 43.9615 72.6516 44.0081V46.3126H75.0044C75.0044 48.435 75.0044 50.4919 75.0044 52.5473C75.0044 54.6352 75 56.7231 74.9912 58.8111C74.981 60.8606 75.0483 62.9117 74.9546 65.002H72.6267V67.3327H70.3194C70.2696 68.1397 70.3501 68.8856 70.2666 69.6314C69.458 69.6722 68.7094 69.6066 67.9314 69.6751V71.981H65.5933V73.9898H2.30589V71.9592H0V53.3208L2.31321 53.3048C2.31321 53.3776 2.30149 53.4504 2.30149 53.5218C2.30149 58.7659 2.30149 64.01 2.30149 69.2541C2.30835 69.3647 2.32304 69.4747 2.34544 69.5833C3.54087 69.6969 62.7029 69.6445 63.2464 69.525V68.7428C63.2464 65.1253 63.2464 61.5084 63.2464 57.8919C63.2464 56.3633 63.2464 54.8348 63.2464 53.3062C64.017 53.2931 64.789 53.3557 65.5904 53.2625V50.9741C66.3595 50.9566 67.133 51.0323 67.9344 50.9274V48.6433C68.7006 48.6361 69.4697 48.6769 70.2359 48.6215V46.3126C69.8301 46.3126 69.4697 46.3039 69.1093 46.3126C68.7489 46.3214 68.3446 46.2558 67.949 46.3767V48.6448C67.1799 48.6608 66.4064 48.5924 65.605 48.6929V50.9755C64.8359 50.9915 64.0639 50.9231 63.2611 51.0236V53.3048C62.9197 53.3048 62.5784 53.2931 62.2356 53.2931H3.5438C3.12921 53.3048 2.71462 53.3048 2.30003 53.3048Z" fill="white"/>
<path d="M14.0317 4.35996V2.08315C14.8346 1.98701 15.6066 2.04528 16.3757 2.03508L16.3625 2.02197C16.3924 2.79889 16.3821 3.57681 16.3318 4.35268H14.0186L14.0317 4.35996Z" fill="white"/>
<path d="M11.6892 6.69796V4.41532C12.4906 4.31772 13.2626 4.37453 14.0332 4.36579L14.0185 4.35996C14.0185 5.12473 14.0713 5.8924 13.9804 6.69067H11.6746L11.6892 6.69796Z" fill="white"/>
<path d="M9.34522 9.02863V6.74599C10.1466 6.64839 10.9201 6.7052 11.6892 6.69792L11.6745 6.68335C11.6745 7.44957 11.6745 8.21433 11.6628 9.01406H9.33057L9.34522 9.02863Z" fill="white"/>
<path d="M53.8587 11.4015V41.5725C53.2859 41.6862 15.46 41.7299 14.1078 41.6235C13.9613 41.0306 13.9276 13.049 14.0624 11.4467C14.6015 11.3199 52.4055 11.2704 53.8587 11.4015ZM32.7937 27.7034V34.5498C32.8552 34.5833 32.8948 34.6212 32.9402 34.6241C33.135 34.6343 33.3314 34.6372 33.5262 34.6358L44.3524 34.6227C44.3715 34.6227 44.392 34.6008 44.4096 34.5862C44.4272 34.5717 44.4447 34.5527 44.4477 34.5513V27.7034H32.7937ZM30.4321 25.326H32.8479C33.6038 25.326 34.3598 25.326 35.1142 25.326C35.8687 25.326 36.6525 25.326 37.4157 25.3158V23.0551H25.7969C25.6929 23.9888 25.7178 29.3975 25.8262 29.9408H30.4321V25.326Z" fill="white"/>
<path d="M35.126 62.5855V58.0974C35.1505 58.0689 35.1769 58.0421 35.2051 58.0173C35.2227 58.0027 35.2446 57.9823 35.2651 57.9823L57.9724 57.9634H58.5306V62.635C56.2364 62.67 53.9291 62.635 51.5499 62.6583V64.9235H49.206V62.7734C49.1415 62.7253 49.1239 62.7078 49.1034 62.6962C49.0842 62.6821 49.0623 62.6721 49.039 62.667C48.9905 62.6595 48.9415 62.6556 48.8925 62.6554L35.2681 62.6408C35.2192 62.6265 35.1716 62.608 35.126 62.5855Z" fill="white"/>
<path d="M14.0155 60.3565V64.8723C13.4456 64.9874 10.4995 65.018 9.34364 64.9189C9.28943 63.4141 9.35829 61.9006 9.33485 60.4032C9.89154 60.2721 12.9578 60.24 14.0155 60.3565Z" fill="white"/>
</svg>
